<svg xmlns="http://www.w3.org/2000/svg" viewBox="0 0 512 512">
  <rect width="512" height="512" rx="96" fill="#2d6f65"/>
  <g transform="translate(256,280)">
    <!-- Leaf / sprout -->
    <path d="M0,-140 C60,-140 120,-80 120,-20 C120,20 90,50 40,60 Q20,64 0,60 Q-20,64 -40,60 C-90,50 -120,20 -120,-20 C-120,-80 -60,-140 0,-140Z" fill="#4db8a4" opacity="0.85"/>
    <path d="M0,-140 C30,-100 40,-40 0,60" stroke="#2d6f65" stroke-width="8" fill="none" stroke-linecap="round"/>
    <path d="M0,-60 C30,-50 60,-20 80,10" stroke="#2d6f65" stroke-width="6" fill="none" stroke-linecap="round"/>
    <path d="M0,-20 C-25,-10 -50,10 -60,40" stroke="#2d6f65" stroke-width="6" fill="none" stroke-linecap="round"/>
    <!-- Soil line -->
    <ellipse cx="0" cy="80" rx="100" ry="16" fill="#d76a4d" opacity="0.7"/>
  </g>
</svg>
